# xmcd
# 
# Track frame offsets:
#     150
#     15015
#     30860
#     45613
#     58495
#     69465
#     83685
#     103722
#     115564
#     125705
#     138438
#     155148
#     165311
#     182721
#     200288
#     217026
# 
# Disc length: 3078
# 
# Revision: 4
# Processed by: cddbd v1.5.2PL0 Copyright (c) Steve Scherf et al.
# Submitted via: BonkEnc v1.0.8
# 
DISCID=d20c0410
DTITLE=Die Ärzte - Jazz ist anders
DYEAR=2007
DGENRE=Rock
TTITLE0=Himmelblau
TTITLE1=Lied Vom Scheitern
TTITLE2=Breit
TTITLE3=Lasse Redn
TTITLE4=Die Ewige Maitresse
TTITLE5=Junge
TTITLE6=Nur Einen Kuss
TTITLE7=Perfekt
TTITLE8=Heulerei
TTITLE9=Licht Am Ende Des Sarges
TTITLE10=Niedliches Liebeslied
TTITLE11=Deine Freundin (Wäre Mir Zu An
TTITLE12=Allein
TTITLE13=Tu Das Nicht
TTITLE14=Living Hell
TTITLE15=Vorbei Ist Vorbei
EXTD=
EXTT0=
EXTT1=
EXTT2=
EXTT3=
EXTT4=
EXTT5=
EXTT6=
EXTT7=
EXTT8=
EXTT9=
EXTT10=
EXTT11=
EXTT12=
EXTT13=
EXTT14=
EXTT15=
PLAYORDER=
